<?xml version="1.0" encoding="UTF-8"?> <svg xmlns="http://www.w3.org/2000/svg" width="600" height="600" viewBox="0 0 600 600" fill="none"> <circle cx="300" cy="300" r="300" fill="black"></circle> <path d="M300 100L516.506 400H83.4937L300 100Z" fill="#9ACD32"></path> <ellipse cx="299.5" cy="214.5" rx="38.5" ry="20.5" fill="#008000"></ellipse> <ellipse cx="300" cy="214" rx="11" ry="10" fill="black"></ellipse> <ellipse rx="5.5" ry="5" transform="matrix(1 0 0 -1 305.5 214)" fill="#C4C4C4"></ellipse> <rect x="104.25" y="432.75" width="158.5" height="0.5" transform="rotate(-90 104.25 432.75)" fill="#C4C4C4" stroke="black" stroke-width="0.5"></rect> <rect x="133.25" y="432.75" width="158.5" height="0.5" transform="rotate(-90 133.25 432.75)" fill="#C4C4C4" stroke="black" stroke-width="0.5"></rect> <rect x="191.25" y="432.75" width="158.5" height="0.5" transform="rotate(-90 191.25 432.75)" fill="#C4C4C4" stroke="black" stroke-width="0.5"></rect> <rect x="423.25" y="432.75" width="158.5" height="0.5" transform="rotate(-90 423.25 432.75)" fill="#C4C4C4" stroke="black" stroke-width="0.5"></rect> <rect x="510.25" y="437.75" width="158.5" height="0.5" transform="rotate(-90 510.25 437.75)" fill="#C4C4C4" stroke="black" stroke-width="0.5"></rect> <rect x="481.25" y="432.75" width="158.5" height="0.5" transform="rotate(-90 481.25 432.75)" fill="#C4C4C4" stroke="black" stroke-width="0.5"></rect> <rect x="452.25" y="432.75" width="158.5" height="0.5" transform="rotate(-90 452.25 432.75)" fill="#C4C4C4" stroke="black" stroke-width="0.5"></rect> <rect x="394.25" y="432.75" width="158.5" height="0.5" transform="rotate(-90 394.25 432.75)" fill="#C4C4C4" stroke="black" stroke-width="0.5"></rect> <rect x="365.25" y="432.75" width="158.5" height="0.5" transform="rotate(-90 365.25 432.75)" fill="#C4C4C4" stroke="black" stroke-width="0.5"></rect> <rect x="336.25" y="432.75" width="158.5" height="0.5" transform="rotate(-90 336.25 432.75)" fill="#C4C4C4" stroke="black" stroke-width="0.5"></rect> <rect x="307.25" y="432.75" width="158.5" height="0.5" transform="rotate(-90 307.25 432.75)" fill="#C4C4C4" stroke="black" stroke-width="0.5"></rect> <rect x="278.25" y="432.75" width="158.5" height="0.5" transform="rotate(-90 278.25 432.75)" fill="#C4C4C4" stroke="black" stroke-width="0.5"></rect> <rect x="249.25" y="432.75" width="158.5" height="0.5" transform="rotate(-90 249.25 432.75)" fill="#C4C4C4" stroke="black" stroke-width="0.5"></rect> <rect x="220.25" y="432.75" width="158.5" height="0.5" transform="rotate(-90 220.25 432.75)" fill="#C4C4C4" stroke="black" stroke-width="0.5"></rect> <rect x="162.25" y="432.75" width="158.5" height="0.5" transform="rotate(-90 162.25 432.75)" fill="#C4C4C4" stroke="black" stroke-width="0.5"></rect> <line x1="109.006" y1="271.5" x2="514.003" y2="276.76" stroke="black"></line> <line x1="72.0011" y1="399.5" x2="528.001" y2="400.504" stroke="black"></line> <line x1="109.006" y1="366.5" x2="514.003" y2="371.76" stroke="black"></line> <line x1="105.006" y1="335.5" x2="510.003" y2="340.76" stroke="black"></line> <line x1="106.006" y1="304.5" x2="511.003" y2="309.76" stroke="black"></line> </svg> 