<?xml version="1.0" encoding="UTF-8"?> <svg xmlns="http://www.w3.org/2000/svg" width="251" height="223" viewBox="0 0 251 223" fill="none"> <path d="M250.5 111.5C250.5 172.75 194.593 222.5 125.5 222.5C56.4072 222.5 0.5 172.75 0.5 111.5C0.5 50.2503 56.4072 0.5 125.5 0.5C194.593 0.5 250.5 50.2503 250.5 111.5Z" fill="white" stroke="black"></path> <line x1="99.5715" y1="172.742" x2="176.572" y2="44.7423" stroke="black"></line> <path d="M115 98C114.228 101.958 114 105.462 114 109.444C114 115.203 115.918 120.338 116 126C116.046 129.168 113.924 140 119 140" stroke="black" stroke-linecap="round" stroke-linejoin="round"></path> <path d="M125 69C121.607 77.6954 121.33 86.6248 122.056 96.0556C122.627 103.491 123.711 113.423 127 120" stroke="black" stroke-linecap="round" stroke-linejoin="round"></path> <path d="M144 32C137.669 40.9687 140 55.6104 140 66.2222C140 75.1255 146 81.0844 146 90" stroke="black" stroke-linecap="round" stroke-linejoin="round"></path> <path d="M169 16C165.412 18.8033 161 25.8855 161 30.5C161 37.0511 158 42.4835 158 48.9444C158 54.2279 155 59.046 155 64C155 68.5066 156 72.7946 156 77" stroke="black" stroke-linecap="round" stroke-linejoin="round"></path> <path d="M143 34C146.828 29.3604 153.92 27 160 27" stroke="black" stroke-linecap="round" stroke-linejoin="round"></path> <path d="M175 29C175.768 32.9376 175.13 34.5157 175 37.7778C174.902 40.2224 173 40.984 173 43.5C173 46.4415 173.953 52.0467 172 54" stroke="black" stroke-linecap="round" stroke-linejoin="round"></path> <path d="M168 17C173.299 14.932 174.608 14.1633 178.222 17.7777C180.397 19.9528 182.517 19.608 183.778 22.4444C186.177 27.8435 185 36.4997 185 42.5C185 48.083 182.169 54.924 177.5 58.5555C174.826 60.6357 171.331 65.2626 168.556 66.0555C165.918 66.8092 162.823 67.0588 160 68" stroke="black" stroke-linecap="round" stroke-linejoin="round"></path> <path d="M139 43C135.577 45.5929 131.675 49.1561 129 52.5C127.767 54.0413 126.491 54.0385 125.944 56.5C124.837 61.484 124 66.7689 124 72" stroke="black" stroke-linecap="round" stroke-linejoin="round"></path> <path d="M122 83C116.969 89.4394 114 94.6183 114 103" stroke="black" stroke-linecap="round" stroke-linejoin="round"></path> <path d="M145 95C148.195 95 159.603 95.4966 162 92.5C163.027 91.2162 166.464 91.0486 168 90.5C171.33 89.3107 171.214 86.479 173.556 84C174.935 82.539 175.945 77.9919 177 76C178.121 73.8825 180.446 70.7442 180.944 68.5C182.021 63.6538 182.17 59.3397 180 55" stroke="black" stroke-linecap="round" stroke-linejoin="round"></path> <path d="M172 87C171.97 87.183 171.307 98.6981 170.444 98.9444C167.768 99.709 165.486 101.625 163.556 103.556C162.601 104.51 163.304 105.889 162.778 107C162.015 108.61 160.361 109.602 159.778 111.222C158.83 113.856 157.516 116.742 155 118" stroke="black" stroke-linecap="round" stroke-linejoin="round"></path> <path d="M159 115C157.942 119.701 156.902 121.279 153.5 124C151.613 125.51 150.304 128.937 148.444 130C147.194 130.715 142.218 131.836 142 133C141.628 134.984 139.909 137.182 139 139" stroke="black" stroke-linecap="round" stroke-linejoin="round"></path> <path d="M157 114C151.748 114.131 144.691 114.642 140 117.222C137.311 118.701 127 130.416 127 119" stroke="black" stroke-linecap="round" stroke-linejoin="round"></path> <path d="M137 138C130.892 138 125.928 140 120 140" stroke="black" stroke-linecap="round" stroke-linejoin="round"></path> <path d="M140 138C137.667 138 135.333 138 133 138" stroke="black" stroke-linecap="round" stroke-linejoin="round"></path> <path d="M154 124L177 166L133.5 182.5L90 199L62 135.5L48 103.75L34 72L102 34L122 63" stroke="black"></path> <path d="M54 83C57.6912 82.91 59.3864 81 62.5 81C66.0153 81 66.7708 76.7847 68.7778 74.7778C70.8779 72.6777 71.335 74.7425 72.0556 71.5C72.4211 69.8551 74.8316 66.451 76.6111 66.0556C81.3835 64.995 85.3632 69.5919 88 63C90.8851 55.7871 105.219 61.2191 109 65" stroke="black" stroke-linecap="round" stroke-linejoin="round"></path> <path d="M68 104C72.1484 100.802 72.6337 98.6721 74.6111 94.2778C75.5649 92.1581 77 93.3293 77 95C77 97.8804 80.3511 97 82.5 97C86.26 97 95 91.4753 95 87.4444C95 81.6762 104.135 91.1685 107 91C109.02 90.8812 114.425 83.7242 115 82" stroke="black" stroke-linecap="round" stroke-linejoin="round"></path> <path d="M73 133C77.7423 132.075 84.0128 132.357 87.5 128.333C90.1602 125.264 90.5298 121.963 94.6111 121.056C100.493 119.748 106.648 123.676 112 121" stroke="black" stroke-linecap="round" stroke-linejoin="round"></path> <path d="M89 177C91.8176 175.351 95.5742 173 99 173" stroke="black" stroke-linecap="round" stroke-linejoin="round"></path> <path d="M81 148C87.2065 144.453 94.6919 143.355 98.2222 137C101.168 131.698 108.903 141 112 141" stroke="black" stroke-linecap="round" stroke-linejoin="round"></path> </svg> 