<?xml version="1.0" encoding="UTF-8"?> <svg xmlns="http://www.w3.org/2000/svg" width="470" height="297" viewBox="0 0 470 297" fill="none"> <g filter="url(#filter0_d)"> <path d="M311.5 139.5C311.5 215.668 243.049 277.5 158.5 277.5C73.9508 277.5 5.5 215.668 5.5 139.5C5.5 63.3318 73.9508 1.5 158.5 1.5C243.049 1.5 311.5 63.3318 311.5 139.5Z" fill="#FFE602" stroke="black"></path> <path d="M131.5 118C131.5 134.912 119.573 148.5 105 148.5C90.4271 148.5 78.5 134.912 78.5 118C78.5 101.088 90.4271 87.5 105 87.5C119.573 87.5 131.5 101.088 131.5 118Z" fill="white" stroke="black"></path> <path d="M241.5 118C241.5 134.95 230.436 148.5 217 148.5C203.564 148.5 192.5 134.95 192.5 118C192.5 101.05 203.564 87.5 217 87.5C230.436 87.5 241.5 101.05 241.5 118Z" fill="white" stroke="black"></path> <path d="M5 128C10.9424 127.859 13.2569 125.307 18.2778 122.944C28.133 118.307 39.0647 118.823 49.5556 116.944C60.196 115.039 69.5214 117 80 117" stroke="black" stroke-linecap="round" stroke-linejoin="round"></path> <path d="M131 118C151.347 118 171.706 117 192 117" stroke="black" stroke-linecap="round" stroke-linejoin="round"></path> <path d="M241 119C255.889 119 270.778 119 285.667 119C294.843 119 302.052 123.509 311 125" stroke="black" stroke-linecap="round" stroke-linejoin="round"></path> <ellipse cx="105" cy="118.5" rx="7" ry="11.5" fill="black"></ellipse> <ellipse cx="217.5" cy="116.5" rx="7.5" ry="11.5" fill="black"></ellipse> <path d="M80 186C116.644 196.6 155.798 210.582 194 198.556C208.282 194.059 227.127 191.069 239.444 182.111C244.236 178.626 244.179 173.455 250 172" stroke="black" stroke-linecap="round" stroke-linejoin="round"></path> <rect x="132.132" y="200.569" width="19" height="24" transform="rotate(8.53877 132.132 200.569)" fill="white" stroke="black"></rect> <rect x="172.571" y="203.477" width="19" height="24" transform="rotate(-8.79828 172.571 203.477)" fill="white" stroke="black"></rect> <path d="M140 21C150.054 33.2765 159.525 47.098 173.333 55.7778C205.684 76.1124 176.641 51.7183 210 65" stroke="black" stroke-linecap="round" stroke-linejoin="round"></path> <path d="M162 18C182.689 40.2302 207.193 58.4446 231 77" stroke="black" stroke-linecap="round" stroke-linejoin="round"></path> <path d="M193 18C212.14 37.3587 235.426 62.1769 257 79.5556C325.491 134.729 243.097 65.5937 301 105" stroke="black" stroke-linecap="round" stroke-linejoin="round"></path> <path d="M116 25C127.826 35.0043 139.829 45.5995 152.444 54.6667C188.202 80.3674 147.765 50.1204 180 71" stroke="black" stroke-linecap="round" stroke-linejoin="round"></path> <path d="M86 29C100.568 37.3065 115.139 44.9709 130.667 51.3889C143.749 56.7961 156.623 59.884 170 64" stroke="black" stroke-linecap="round" stroke-linejoin="round"></path> <path d="M77 55C96.1344 62.0347 115.424 68.3334 135 74" stroke="black" stroke-linecap="round" stroke-linejoin="round"></path> <path d="M44 52C55.3037 62.7171 65.1398 72.5774 80.9444 75.9444C93.1486 78.5445 104.855 75.8434 117 75" stroke="black" stroke-linecap="round" stroke-linejoin="round"></path> <path d="M161 140C166.992 145.629 166.896 156.844 167 164.778C167.088 171.481 164.049 170.136 158 171" stroke="black" stroke-linecap="round" stroke-linejoin="round"></path> <path d="M224 102L216 87H224L235 97L242 115V129L235 139L224 149V139L230 124V115L224 102Z" fill="black" fill-opacity="0.24"></path> <path d="M115.36 102.517L106 87L122.64 95.2759L132 115.966L126.8 135.621L115.36 147V138.724L122.64 130.448V115.966L115.36 102.517Z" fill="black" fill-opacity="0.25"></path> <rect x="142.437" y="202.694" width="7.48945" height="24.4831" transform="rotate(8.67282 142.437 202.694)" fill="#C4C4C4"></rect> <rect x="183.84" y="199.995" width="6.14916" height="24.4831" transform="rotate(-9.46048 183.84 199.995)" fill="#C4C4C4"></rect> <path d="M161 26L132 5H127L174 0L224 15L267 39L297 81L311 119V151L297 196L281 226L257 248L236 253L224 265L204 274H174L191 265L217 248L241 226L257 196L267 167V137V114C259 105 241.6 84.8 236 76C230.4 67.2 209 51.6667 199 45L161 26Z" fill="black" fill-opacity="0.12"></path> <path d="M302.884 175.461C312.654 180.96 322.781 183.917 333.637 186.687C345.781 189.786 352.379 189.924 360.183 179.367C369.75 166.424 381.591 155.488 389.677 141.476C392.551 136.494 399.426 117.338 407.439 118.21C414.864 119.017 413.522 135.526 412.924 140.13C411.597 150.357 406.228 160.145 402.841 169.789C399.623 178.951 394.902 188.153 390.139 196.616" stroke="black" stroke-linecap="round" stroke-linejoin="round"></path> <path d="M279.43 227.493C289.087 229.83 299.511 230.999 308.411 235.651C316.407 239.832 324.172 244.523 332.036 248.949C338.707 252.704 345.21 257.097 352.516 259.312" stroke="black" stroke-linecap="round" stroke-linejoin="round"></path> <path d="M412.049 218.85C411.58 219.683 410.54 220.25 408.864 220.448C407.202 220.645 405.022 220.462 402.462 219.907C397.348 218.799 390.831 216.235 384.134 212.466C377.438 208.696 371.864 204.455 368.264 200.658C366.462 198.757 365.175 196.989 364.48 195.466C363.78 193.93 363.725 192.747 364.194 191.914C364.663 191.081 365.703 190.514 367.379 190.316C369.041 190.119 371.221 190.302 373.781 190.857C378.895 191.965 385.412 194.529 392.109 198.298C398.805 202.068 404.379 206.309 407.979 210.106C409.781 212.007 411.068 213.775 411.763 215.298C412.463 216.834 412.518 218.017 412.049 218.85Z" stroke="black"></path> <path d="M386.655 263.966C386.186 264.799 385.146 265.366 383.47 265.564C381.807 265.761 379.628 265.578 377.068 265.023C371.954 263.916 365.437 261.351 358.74 257.582C352.043 253.813 346.47 249.571 342.87 245.774C341.068 243.874 339.78 242.105 339.086 240.582C338.386 239.047 338.331 237.863 338.8 237.03C339.268 236.198 340.309 235.63 341.985 235.432C343.647 235.236 345.827 235.419 348.387 235.973C353.5 237.081 360.018 239.645 366.714 243.415C373.411 247.184 378.985 251.425 382.585 255.222C384.387 257.123 385.674 258.891 386.368 260.414C387.068 261.95 387.123 263.134 386.655 263.966Z" stroke="black"></path> <path d="M399.549 251.421C399.09 252.236 398.01 252.78 396.211 252.919C394.433 253.056 392.088 252.783 389.325 252.115C383.806 250.782 376.731 247.905 369.42 243.79C362.109 239.675 355.978 235.119 351.975 231.092C349.971 229.076 348.521 227.213 347.716 225.623C346.901 224.012 346.806 222.807 347.264 221.991C347.723 221.176 348.803 220.632 350.603 220.493C352.381 220.357 354.725 220.63 357.489 221.297C363.008 222.63 370.083 225.507 377.394 229.622C384.705 233.738 390.836 238.293 394.839 242.32C396.843 244.336 398.292 246.199 399.098 247.789C399.913 249.4 400.008 250.606 399.549 251.421Z" stroke="black"></path> <path d="M414.216 239.873C413.77 240.665 412.634 241.179 410.658 241.232C408.719 241.285 406.144 240.885 403.097 240.059C397.01 238.411 389.156 235.095 380.985 230.496C372.815 225.898 365.905 220.903 361.338 216.555C359.052 214.379 357.374 212.384 356.413 210.699C355.433 208.983 355.283 207.745 355.729 206.953C356.175 206.161 357.311 205.647 359.287 205.593C361.225 205.541 363.801 205.941 366.848 206.766C372.935 208.415 380.789 211.73 388.96 216.329C397.13 220.928 404.039 225.922 408.607 230.27C410.893 232.447 412.571 234.442 413.532 236.126C414.511 237.843 414.661 239.081 414.216 239.873Z" stroke="black"></path> <path d="M357.554 258.653C352.578 257.068 347.529 257.432 342.661 256.095" stroke="black" stroke-linecap="round" stroke-linejoin="round"></path> <g filter="url(#filter1_f)"> <path d="M333 187L303 177L298 187L298 201L287 216L281 224L298 232L313 239L323 245L343 252L350 262L357 252L365 262L371 262L387 262L382 252L392 252L403 252L397 245L392 239L382 235L392 235L403 239L412 239L415 235L403 224L397 216L408 216L415 216L397 201L392 196L397 187L403 172L408 151L415 136L415 128L408 116L397 128L382 151L365 172L350 187L333 187Z" fill="#EBFF00" fill-opacity="0.54"></path> </g> </g> <defs> <filter id="filter0_d" x="0.499998" y="0" width="468.71" height="296.33" filterUnits="userSpaceOnUse" color-interpolation-filters="sRGB"> <feFlood flood-opacity="0" result="BackgroundImageFix"></feFlood> <feColorMatrix in="SourceAlpha" type="matrix" values="0 0 0 0 0 0 0 0 0 0 0 0 0 0 0 0 0 0 127 0"></feColorMatrix> <feOffset dy="4"></feOffset> <feGaussianBlur stdDeviation="2"></feGaussianBlur> <feColorMatrix type="matrix" values="0 0 0 0 0 0 0 0 0 0 0 0 0 0 0 0 0 0 0.25 0"></feColorMatrix> <feBlend mode="normal" in2="BackgroundImageFix" result="effect1_dropShadow"></feBlend> <feBlend mode="normal" in="SourceGraphic" in2="effect1_dropShadow" result="shape"></feBlend> </filter> <filter id="filter1_f" x="277" y="112" width="142" height="154" filterUnits="userSpaceOnUse" color-interpolation-filters="sRGB"> <feFlood flood-opacity="0" result="BackgroundImageFix"></feFlood> <feBlend mode="normal" in="SourceGraphic" in2="BackgroundImageFix" result="shape"></feBlend> <feGaussianBlur stdDeviation="2" result="effect1_foregroundBlur"></feGaussianBlur> </filter> </defs> </svg> 