<?xml version="1.0" encoding="UTF-8"?> <svg xmlns="http://www.w3.org/2000/svg" width="129" height="158" viewBox="0 0 129 158" fill="none"> <path d="M102 0L120.187 58.5H83.8135L102 0Z" fill="#C4C4C4"></path> <path d="M84.4925 58L102 1.68426L119.507 58H84.4925Z" stroke="black" stroke-opacity="0.26"></path> <path d="M28 0L46.1865 58.5H9.81347L28 0Z" fill="#C4C4C4"></path> <path d="M10.4925 58L28 1.68426L45.5075 58H10.4925Z" stroke="black" stroke-opacity="0.24"></path> <ellipse cx="64.5" cy="93" rx="64.5" ry="65" fill="#C4C4C4"></ellipse> <path d="M128.5 93C128.5 128.626 99.8426 157.5 64.5 157.5C29.1574 157.5 0.5 128.626 0.5 93C0.5 57.374 29.1574 28.5 64.5 28.5C99.8426 28.5 128.5 57.374 128.5 93Z" stroke="black" stroke-opacity="0.27"></path> <path d="M51.7688 94L65 152.725L78.2312 94H51.7688Z" fill="#C5B091" stroke="#B3957A"></path> <path d="M117 87C117 101.359 105.136 113 90.5 113C75.8645 113 64 101.359 64 87C64 72.6406 75.8645 61 90.5 61C105.136 61 117 72.6406 117 87Z" fill="white"></path> <path d="M64 87C64 101.359 52.3594 113 38 113C23.6406 113 12 101.359 12 87C12 72.6406 23.6406 61 38 61C52.3594 61 64 72.6406 64 87Z" fill="white"></path> <ellipse cx="91" cy="90" rx="20" ry="17" fill="black"></ellipse> <ellipse cx="38" cy="90" rx="20" ry="17" fill="black"></ellipse> </svg> 